<svg width="55" height="55" viewBox="0 0 55 55" fill="none" xmlns="http://www.w3.org/2000/svg">
<path d="M2.01294 33.9451C3.94269 31.5297 6.18775 29.2847 8.60313 27.3549C10.1773 26.0973 12.437 26.0674 14.0316 27.3281C16.5134 29.2902 18.7581 31.5348 20.7201 34.0166C21.9808 35.6113 21.951 37.871 20.6933 39.4451C18.7636 41.8605 16.5185 44.1056 14.1032 46.0353C12.529 47.293 10.2693 47.3228 8.67464 46.0621C6.19285 44.1001 3.94821 41.8554 1.98617 39.3736C0.725452 37.7789 0.755309 35.5192 2.01294 33.9451ZM17.9228 18.0352C19.8526 15.6198 22.0977 13.3748 24.513 11.445C26.0872 10.1874 28.3469 10.1575 29.9416 11.4182C32.4233 13.3803 34.668 15.6249 36.63 18.1067C37.8907 19.7014 37.8609 21.9611 36.6032 23.5352C34.6735 25.9506 32.4284 28.1957 30.0131 30.1254C28.4389 31.3831 26.1792 31.4129 24.5845 30.1522C22.1027 28.1902 19.8581 25.9455 17.8961 23.4637C16.6354 21.869 16.6652 19.6093 17.9228 18.0352Z" fill="white" stroke="#1E96FC"/>
</svg>
