<svg width="22" height="22" viewBox="0 0 22 22" fill="none" xmlns="http://www.w3.org/2000/svg">
<path d="M7.04031 1.32031C3.88661 1.32031 1.32031 3.88661 1.32031 7.04031V14.9603C1.32031 18.114 3.88661 20.6803 7.04031 20.6803H14.9603C18.114 20.6803 20.6803 18.114 20.6803 14.9603V7.04031C20.6803 3.88661 18.114 1.32031 14.9603 1.32031H7.04031ZM7.04031 2.20031H14.9603C17.6384 2.20031 19.8003 4.36226 19.8003 7.04031V14.9603C19.8003 17.6384 17.6384 19.8003 14.9603 19.8003H7.04031C4.36226 19.8003 2.20031 17.6384 2.20031 14.9603V7.04031C2.20031 4.36226 4.36226 2.20031 7.04031 2.20031ZM16.2803 4.84031C16.0469 4.84031 15.8231 4.93303 15.6581 5.09806C15.493 5.26309 15.4003 5.48692 15.4003 5.72031C15.4003 5.9537 15.493 6.17753 15.6581 6.34257C15.8231 6.5076 16.0469 6.60031 16.2803 6.60031C16.5137 6.60031 16.7375 6.5076 16.9026 6.34257C17.0676 6.17753 17.1603 5.9537 17.1603 5.72031C17.1603 5.48692 17.0676 5.26309 16.9026 5.09806C16.7375 4.93303 16.5137 4.84031 16.2803 4.84031ZM11.0003 6.16031C8.33247 6.16031 6.16031 8.33247 6.16031 11.0003C6.16031 13.6682 8.33247 15.8403 11.0003 15.8403C13.6682 15.8403 15.8403 13.6682 15.8403 11.0003C15.8403 8.33247 13.6682 6.16031 11.0003 6.16031ZM11.0003 7.04031C13.1926 7.04031 14.9603 8.80805 14.9603 11.0003C14.9603 13.1926 13.1926 14.9603 11.0003 14.9603C8.80805 14.9603 7.04031 13.1926 7.04031 11.0003C7.04031 8.80805 8.80805 7.04031 11.0003 7.04031Z" fill="#1E96FC"/>
</svg>
