<svg width="320" height="147" viewBox="0 0 320 147" fill="none" xmlns="http://www.w3.org/2000/svg">
<rect x="1.19531" y="1.10351" width="318.526" height="144.965" rx="6.63298" fill="white" fill-opacity="0.7"/>
<rect x="1.19531" y="1.10351" width="318.526" height="144.965" rx="6.63298" stroke="#C5CAD0" stroke-width="0.558584"/>
<rect x="18.6582" y="18.5654" width="30.1635" height="10.6131" rx="5.30655" fill="white"/>
<rect x="18.6582" y="18.5654" width="30.1635" height="10.6131" rx="5.30655" stroke="#EBF0F5" stroke-width="0.558584"/>
<path d="M29.8227 26.179H31.5901V22.0428L29.9168 22.2638L29.8063 21.3351L31.9665 21.0405H32.8052V26.179H34.3557V27.0791H29.8227V26.179ZM37.6942 27.1691C37.1514 27.1691 36.7177 27.0955 36.3932 26.9482C36.0686 26.7982 35.834 26.5963 35.6895 26.3427C35.5449 26.0863 35.4726 25.8013 35.4726 25.4876C35.4726 25.1276 35.5913 24.8126 35.8286 24.5426C36.0659 24.2698 36.3836 24.053 36.7818 23.8921C36.5663 23.7939 36.3686 23.6807 36.1886 23.5525C36.0113 23.4216 35.8681 23.2661 35.759 23.0861C35.6526 22.9061 35.5995 22.6906 35.5995 22.4397C35.5995 22.1806 35.669 21.9378 35.8081 21.7115C35.9499 21.4824 36.175 21.2969 36.4832 21.1551C36.7914 21.0132 37.195 20.9423 37.6942 20.9423C38.2396 20.9423 38.6651 21.016 38.9706 21.1632C39.2788 21.3078 39.4956 21.4919 39.6211 21.7155C39.7466 21.9392 39.8093 22.1697 39.8093 22.407C39.8093 22.6333 39.7534 22.8434 39.6416 23.037C39.5297 23.2307 39.3838 23.3998 39.2038 23.5443C39.0265 23.6889 38.837 23.8007 38.6351 23.8798C38.8697 23.9889 39.0852 24.1157 39.2815 24.2603C39.4806 24.4048 39.6388 24.5767 39.7561 24.7758C39.8761 24.9721 39.9361 25.2081 39.9361 25.4835C39.9361 25.7972 39.8625 26.0822 39.7152 26.3386C39.5679 26.5922 39.3306 26.7941 39.0033 26.9441C38.676 27.0941 38.2396 27.1691 37.6942 27.1691ZM36.7327 22.4888C36.7327 22.7261 36.835 22.9184 37.0396 23.0656C37.2469 23.2129 37.4923 23.3438 37.776 23.4584C37.9996 23.3684 38.2028 23.2429 38.3856 23.082C38.571 22.9184 38.6638 22.7288 38.6638 22.5133C38.6638 22.3933 38.6433 22.2774 38.6024 22.1656C38.5615 22.0538 38.4742 21.961 38.3406 21.8874C38.2069 21.8137 37.9996 21.7769 37.7187 21.7769C37.345 21.7769 37.0873 21.8492 36.9455 21.9937C36.8036 22.1383 36.7327 22.3033 36.7327 22.4888ZM37.7269 26.314C38.0242 26.314 38.2506 26.2745 38.406 26.1954C38.5615 26.1163 38.6665 26.0086 38.721 25.8722C38.7783 25.7331 38.807 25.5776 38.807 25.4058C38.807 25.1658 38.6924 24.9585 38.4633 24.7839C38.2369 24.6094 37.971 24.4594 37.6655 24.3339C37.3055 24.4676 37.0368 24.6285 36.8596 24.8167C36.6823 25.0021 36.5936 25.1985 36.5936 25.4058C36.5936 25.5776 36.625 25.7331 36.6877 25.8722C36.7532 26.0086 36.8677 26.1163 37.0314 26.1954C37.1978 26.2745 37.4296 26.314 37.7269 26.314Z" fill="#76889A"/>
<g clip-path="url(#clip0_6989_49352)">
<rect x="18.3789" y="33.9268" width="30.7221" height="94.9593" rx="4.46867" fill="white"/>
<path d="M44.3871 72.1876C45.7121 81.0875 44.8616 91.7405 43.9192 94.7668C43.8562 94.9691 43.6328 95.0594 43.4338 94.9865C33.3192 91.2827 25.0211 96.1034 25.2164 95.5173C25.4141 94.9241 24.8212 81.8753 24.0307 74.5601C23.4784 69.4494 25.8094 63.093 28.7739 63.6861C31.1455 64.1606 32.1337 69.2219 32.1337 71.199C32.1337 73.1761 33.3195 84.6433 35.2959 84.6433C37.2722 84.6433 38.8532 77.9212 39.0509 75.7464C39.2486 73.5715 39.4463 67.0471 39.2486 65.2678C39.051 63.4884 43.0037 62.8953 44.3871 72.1876Z" fill="#F1F3F5" stroke="#13293D" stroke-width="0.279292"/>
<path d="M35.2944 84.6431C37.2707 84.6431 38.8517 77.921 39.0494 75.7462C39.1789 74.3219 39.3083 71.0318 39.3268 68.431C37.3504 65.8608 37.8419 63.6907 36.4802 61.5111C34.5038 58.3478 32.0142 59.5341 32.0142 62.3019L31.6328 67.8378C31.9742 69.1244 32.1322 70.4083 32.1322 71.1989C32.1322 73.176 33.318 84.6431 35.2944 84.6431Z" fill="#F1F3F5" stroke="#13293D" stroke-width="0.279292"/>
<path d="M41.0261 97.4944C39.9194 96.0709 29.7609 96.7036 29.7609 96.7036C29.7609 96.7036 27.3497 96.4268 24.82 99.2738C22.2903 102.121 21.9213 106.26 22.0531 107.973C21.9213 108.83 22.0136 110.899 23.4365 112.323C25.2153 114.102 30.5514 113.904 32.1325 113.113C33.3974 112.481 33.7136 109.159 34.1089 109.159C34.1089 109.159 36.0852 112.916 37.864 113.904C39.6427 114.893 42.4096 114.3 43.2001 113.904C43.9907 113.509 46.3623 112.125 44.9789 106.194C43.5954 100.262 42.4096 99.2738 41.0261 97.4944Z" fill="#F1F3F5" stroke="#13293D" stroke-width="0.279292"/>
<path d="M28.5171 103.986C28.5171 104.861 28.3635 105.696 28.0879 106.523C27.968 106.883 27.8785 107.26 27.8312 107.638C27.7609 108.2 27.6895 108.79 27.6895 109.366" stroke="#13293D" stroke-width="0.279292" stroke-linecap="round"/>
<path d="M38.5801 104.78C38.7715 104.993 38.9499 105.332 39.0665 105.593C39.2209 105.937 39.3847 106.265 39.5529 106.602C39.6648 106.826 39.8102 107.052 39.8522 107.305C39.9036 107.613 40.0016 107.9 40.0822 108.199C40.1448 108.431 40.2242 108.663 40.2762 108.897C40.3203 109.096 40.3438 109.308 40.3954 109.502C40.4428 109.68 40.4423 109.889 40.4757 110.073C40.5354 110.401 40.5702 110.736 40.6005 111.068" stroke="#13293D" stroke-width="0.279292" stroke-linecap="round"/>
</g>
<rect x="18.6582" y="34.206" width="30.1635" height="94.4007" rx="4.18938" stroke="#EBF0F5" stroke-width="0.558584"/>
<rect x="54.8633" y="18.5654" width="30.1635" height="10.6131" rx="5.30655" fill="white"/>
<rect x="54.8633" y="18.5654" width="30.1635" height="10.6131" rx="5.30655" stroke="#EBF0F5" stroke-width="0.558584"/>
<path d="M66.0278 26.179H67.7952V22.0428L66.1219 22.2638L66.0114 21.3351L68.1716 21.0405H69.0103V26.179H70.5608V27.0791H66.0278V26.179ZM72.4796 27.0791L74.6807 22.0469H71.9477V21.0405H76.0307V21.8833L73.7642 27.0791H72.4796Z" fill="#76889A"/>
<g clip-path="url(#clip1_6989_49352)">
<rect x="54.584" y="33.9268" width="30.7221" height="94.9593" rx="4.46867" fill="white"/>
<path d="M81.8439 67.0255C83.4396 77.2435 81.2222 89.4231 80.0007 92.7824C79.93 92.9769 79.7108 93.0654 79.5158 92.9961C68.1254 88.9482 60.7039 92.6367 58.4805 93.0806C58.282 93.1202 58.1158 92.9768 58.0997 92.775C57.9038 90.3202 56.7441 75.5585 56.7441 70.1889C56.7441 64.324 58.73 56.8588 62.2779 57.5355C65.1163 58.0769 66.2306 64.7698 66.2307 67.0255C66.2307 69.2812 67.2188 82.2491 70.381 82.2491C73.5432 82.2491 74.5227 73.2388 74.7593 70.7575C74.9959 68.2763 74.6123 57.3935 75.3219 56.9424C76.0315 56.4912 80.1882 56.4237 81.8439 67.0255Z" fill="#F1F3F5" stroke="#13293D" stroke-width="0.279292"/>
<path d="M70.3799 82.2489C73.5421 82.2489 74.5216 73.2386 74.7582 70.7573C74.8389 69.9115 74.8474 68.0893 74.8518 66.0368C74.2835 64.4551 73.1468 60.6987 71.5657 56.7445C69.9846 52.7903 68.6012 51.8018 67.8106 51.8018C66.7273 52.1114 66.862 52.3158 67.0201 55.1628C67.1782 58.0098 66.2666 61.8849 65.791 63.4666C66.0922 64.8943 66.2295 66.2333 66.2296 67.0253C66.2296 69.2811 67.2177 82.2489 70.3799 82.2489Z" fill="#F1F3F5" stroke="#13293D" stroke-width="0.279292"/>
<path d="M78.8786 96.2867C76.0049 93.2202 65.8346 94.5073 65.8346 94.5073C65.8346 94.5073 62.4169 94.9901 59.5103 98.2638C56.6037 101.538 56.7897 105.981 56.941 107.952C57.0924 109.922 57.9809 112.599 59.9056 113.883C61.0914 114.674 66.3598 114.052 68.1764 113.142C69.6297 112.415 70.8218 110.153 70.9732 108.94C70.9732 108.94 71.894 112.006 73.9377 113.142C75.9814 114.279 81.1325 113.597 82.0408 113.142C82.9491 112.688 84.2148 111.708 82.9363 105.185C81.5893 98.3131 79.7612 97.2285 78.8786 96.2867Z" fill="#F1F3F5" stroke="#13293D" stroke-width="0.279292"/>
<path d="M63.9398 101.439C63.9398 102.073 63.6774 102.624 63.568 103.225C63.5063 103.565 63.502 103.937 63.502 104.285C63.502 104.584 63.4395 104.88 63.4395 105.192C63.4395 105.488 63.4697 105.789 63.377 106.067" stroke="#13293D" stroke-width="0.279292" stroke-linecap="round"/>
<path d="M74.6289 100.813C74.6289 101.203 75.0908 101.508 75.1777 101.891C75.2505 102.211 75.4068 102.46 75.5528 102.752C75.7286 103.104 75.8665 103.458 75.9904 103.829C76.1454 104.295 76.1933 104.804 76.3933 105.254C76.548 105.602 76.6969 105.956 76.817 106.317" stroke="#13293D" stroke-width="0.279292" stroke-linecap="round"/>
<path d="M60.875 114.072C60.875 113.499 60.8125 112.931 60.8125 112.356C60.8125 111.981 61.1252 111.631 61.1252 111.258" stroke="#13293D" stroke-width="0.279292" stroke-linecap="round"/>
</g>
<rect x="54.8633" y="34.206" width="30.1635" height="94.4007" rx="4.18938" stroke="#EBF0F5" stroke-width="0.558584"/>
<rect x="91.0684" y="18.5654" width="30.1635" height="10.6131" rx="5.30655" fill="white"/>
<rect x="91.0684" y="18.5654" width="30.1635" height="10.6131" rx="5.30655" stroke="#EBF0F5" stroke-width="0.558584"/>
<path d="M102.233 26.179H104V22.0428L102.327 22.2638L102.216 21.3351L104.377 21.0405H105.215V26.179H106.766V27.0791H102.233V26.179ZM110.301 27.1896C109.766 27.1896 109.337 27.1023 109.012 26.9277C108.687 26.7504 108.451 26.5145 108.304 26.22C108.16 25.9227 108.087 25.5926 108.087 25.2299C108.087 24.9544 108.111 24.6939 108.157 24.4485C108.203 24.203 108.278 23.9521 108.382 23.6957C108.486 23.4366 108.625 23.1543 108.799 22.8488L109.826 21.0364H111.135L109.83 23.3602C110.032 23.3057 110.256 23.2784 110.501 23.2784C110.97 23.2784 111.347 23.3657 111.63 23.5402C111.914 23.7121 112.12 23.9452 112.248 24.2398C112.376 24.5344 112.44 24.8644 112.44 25.2299C112.44 25.5817 112.374 25.9063 112.24 26.2036C112.109 26.5009 111.887 26.7395 111.573 26.9195C111.262 27.0996 110.838 27.1896 110.301 27.1896ZM110.28 26.2936C110.553 26.2936 110.763 26.2418 110.91 26.1381C111.058 26.0345 111.16 25.9008 111.217 25.7372C111.277 25.5708 111.307 25.3976 111.307 25.2176C111.307 25.0349 111.28 24.8617 111.225 24.698C111.171 24.5317 111.068 24.3966 110.918 24.293C110.771 24.1866 110.556 24.1334 110.272 24.1334C109.991 24.1334 109.774 24.1866 109.622 24.293C109.472 24.3966 109.368 24.5317 109.311 24.698C109.253 24.8617 109.225 25.0349 109.225 25.2176C109.225 25.3976 109.256 25.5708 109.319 25.7372C109.384 25.9008 109.493 26.0345 109.646 26.1381C109.799 26.2418 110.01 26.2936 110.28 26.2936Z" fill="#76889A"/>
<g clip-path="url(#clip2_6989_49352)">
<rect x="90.7891" y="33.9268" width="30.7221" height="94.9593" rx="4.46867" fill="white"/>
<path d="M118.678 68.6203C120.265 78.7812 118.81 89.9869 116.947 93.5122C116.83 93.7326 116.535 93.7515 116.356 93.5784C108.57 86.0611 94.5313 94.0007 94.7644 93.334C95.0009 92.6572 94.5667 82.1714 92.9858 72.0883C92.0773 66.2943 91.2164 57.1765 94.7644 57.8532C97.6027 58.3946 96.2928 62.6891 100.496 69.2135C104.699 75.7379 102.275 82.46 105.437 82.46C108.599 82.46 109.35 73.4741 109.587 70.9929C109.824 68.5116 108.797 59.1302 109.982 57.5486C111.168 55.967 117.023 58.0185 118.678 68.6203Z" fill="#F1F3F5" stroke="#13293D" stroke-width="0.279292"/>
<path d="M105.437 82.4602C108.599 82.4602 109.35 73.4743 109.587 70.9931C109.752 69.2613 109.302 64.1686 109.418 60.7121C109.432 59.9213 107.521 57.1534 105.634 54.1877C104.712 52.7379 102.63 50.0359 101.682 50.8267C100.496 51.8152 101.286 55.1763 100.496 57.7465C99.8632 59.8027 99.265 64.5345 99.0449 66.6434C99.4404 67.455 99.9155 68.3131 100.496 69.2137C104.699 75.7381 102.274 82.4602 105.437 82.4602Z" fill="#F1F3F5" stroke="#13293D" stroke-width="0.279292"/>
<path d="M118.086 97.6841C115.212 94.6176 109.39 93.5323 105.635 93.9276C101.88 94.323 97.2263 93.9276 94.9624 96.8933C92.6984 99.859 92.5112 105.995 92.6626 107.965C92.5112 108.95 94.0522 114.196 96.3457 113.896C100.496 113.353 102.077 113.156 103.898 113.156C105.523 113.156 106.076 111.155 106.228 109.942C106.228 109.942 109.125 112.76 111.168 113.896C113.212 115.033 117.177 111.583 118.086 111.128C118.994 110.674 120.26 111.646 120.26 104.999C120.26 101.243 118.876 98.5277 118.086 97.6841Z" fill="#F1F3F5" stroke="#13293D" stroke-width="0.279292"/>
<path d="M106.228 109.942C106.228 109.942 109.125 112.76 111.169 113.897C110.181 114.49 108.797 114.687 107.216 114.49C105.635 114.292 103.826 113.503 103.899 113.156C105.524 113.156 106.077 111.155 106.228 109.942Z" fill="#F1F3F5" stroke="#13293D" stroke-width="0.279292"/>
<path d="M106.136 109.849C106.092 109.497 105.791 109.126 105.77 108.751C105.761 108.591 105.7 108.085 105.831 108.02" stroke="#13293D" stroke-width="0.279292" stroke-linecap="round"/>
<path d="M111.734 101.614C111.734 101.885 111.915 102.127 112.008 102.374C112.108 102.64 112.159 102.921 112.262 103.186C112.448 103.665 112.563 104.159 112.684 104.656C112.767 104.997 112.845 105.341 112.923 105.681C112.994 105.99 112.965 106.322 112.965 106.638C112.965 107.07 112.931 107.514 112.931 107.937" stroke="#13293D" stroke-width="0.279292" stroke-linecap="round"/>
<path d="M98.957 113.507C98.795 113.489 98.6192 113.206 98.4709 113.139C98.3427 113.081 98.2972 113.026 98.2241 112.911C98.0671 112.665 98.0981 112.215 98.0703 111.937C98.0321 111.555 97.8633 111.2 97.8633 110.807C97.8633 110.672 97.8598 110.547 97.9127 110.418C98.0212 110.155 98.0183 109.853 98.0684 109.577" stroke="#13293D" stroke-width="0.279292" stroke-linecap="round"/>
</g>
<rect x="91.0684" y="34.206" width="30.1635" height="94.4007" rx="4.18938" stroke="#EBF0F5" stroke-width="0.558584"/>
<rect x="127.275" y="18.5654" width="30.1635" height="10.6131" rx="5.30655" fill="white"/>
<rect x="127.275" y="18.5654" width="30.1635" height="10.6131" rx="5.30655" stroke="#F1F3F5" stroke-width="0.558584"/>
<path d="M133.413 26.179H135.18V22.0428L133.507 22.2638L133.396 21.3351L135.556 21.0405H136.395V26.179H137.946V27.0791H133.413V26.179ZM141.362 27.1773C141.078 27.1773 140.794 27.1473 140.511 27.0873C140.23 27.03 139.973 26.9564 139.742 26.8664C139.51 26.7736 139.326 26.6782 139.189 26.58L139.513 25.7658C140.072 26.0986 140.666 26.265 141.296 26.265C141.662 26.265 141.951 26.179 142.164 26.0072C142.379 25.8327 142.487 25.5749 142.487 25.234C142.487 24.9749 142.439 24.7717 142.344 24.6244C142.248 24.4744 142.121 24.3694 141.963 24.3094C141.808 24.2466 141.636 24.2153 141.448 24.2153C140.984 24.2153 140.594 24.3557 140.278 24.6367L139.402 24.1989L139.733 21.0405H143.178V22.0469H140.65L140.486 23.5198C140.639 23.4052 140.809 23.322 140.998 23.2702C141.189 23.2184 141.416 23.1925 141.681 23.1925C142.06 23.1925 142.397 23.2702 142.691 23.4257C142.986 23.5811 143.218 23.8116 143.387 24.1171C143.556 24.4198 143.641 24.7935 143.641 25.2381C143.641 25.609 143.549 25.9418 143.366 26.2363C143.184 26.5282 142.922 26.7586 142.581 26.9277C142.243 27.0941 141.836 27.1773 141.362 27.1773Z" fill="#76889A"/>
<path d="M147.326 25.4244C147.06 25.4244 146.82 25.3924 146.606 25.3284C146.392 25.2644 146.173 25.1674 145.949 25.0374L146.108 24.5783C146.248 24.6704 146.376 24.7424 146.492 24.7944C146.608 24.8464 146.729 24.8834 146.855 24.9054C146.983 24.9274 147.132 24.9384 147.302 24.9384C147.582 24.9384 147.804 24.8674 147.968 24.7254C148.132 24.5833 148.214 24.3553 148.214 24.0413C148.214 23.7353 148.149 23.4973 148.019 23.3273C147.889 23.1572 147.681 23.0722 147.395 23.0722C147.231 23.0722 147.079 23.1072 146.939 23.1772C146.801 23.2453 146.678 23.3203 146.57 23.4023L146.138 23.2223L146.291 21.0201H148.502V21.5151H146.774L146.684 22.8622C146.886 22.7042 147.147 22.6252 147.467 22.6252C147.901 22.6252 148.228 22.7462 148.448 22.9882C148.67 23.2283 148.781 23.5693 148.781 24.0113C148.781 24.3373 148.718 24.6053 148.592 24.8154C148.466 25.0234 148.293 25.1774 148.073 25.2774C147.855 25.3754 147.606 25.4244 147.326 25.4244ZM149.798 24.8934H151.001V21.5271L149.879 21.6471L149.825 21.1701L151.112 21.0201H151.604V24.8934H152.666V25.3584H149.798V24.8934Z" fill="#76889A"/>
<g clip-path="url(#clip3_6989_49352)">
<rect x="126.996" y="33.9268" width="30.7221" height="94.9593" rx="4.46867" fill="white"/>
<path d="M145.923 63.7112C147.715 70.2856 148.825 83.7294 149.054 90.3081C149.067 90.6729 148.636 90.8265 148.411 90.5386C147.244 89.0401 145.455 86.9986 141.377 87.2385C139.208 87.3662 137.065 88.7901 135.799 89.8891C135.528 90.1241 135.08 89.9294 135.1 89.5716C135.243 87.0283 135.678 82.2881 136.634 78.737C137.741 74.6247 137.754 64.5679 137.622 59.757C137.293 56.7913 137.306 50.9392 139.994 51.2555C143.353 51.6509 143.551 55.012 145.923 63.7112Z" fill="#F1F3F5" stroke="#13293D" stroke-width="0.279292"/>
<path d="M141.745 90.8154C146.296 90.8154 148.667 96.4744 151.221 107.244C151.245 107.346 151.227 107.455 151.171 107.544C149.832 109.632 148.814 110.825 146.207 112.743C143.543 114.703 141.302 114.548 140.192 113.732C139.082 112.915 136.62 109.844 135.053 108.789C133.486 107.734 133.495 105.786 133.756 105.032C133.756 105.032 134.942 90.8154 141.745 90.8154Z" fill="#F1F3F5" stroke="#13293D" stroke-width="0.279292"/>
<path d="M141.551 98.4854C141.551 98.8264 141.511 99.1564 141.493 99.4957C141.474 99.8523 141.471 100.21 141.408 100.562C141.354 100.868 141.372 101.187 141.372 101.496C141.372 101.88 141.391 102.276 141.476 102.652C141.531 102.893 141.516 103.184 141.521 103.433C141.528 103.775 141.551 104.116 141.551 104.461C141.551 104.722 141.547 105.048 141.603 105.301C141.641 105.472 141.67 105.692 141.67 105.867" stroke="#13293D" stroke-width="0.279292" stroke-linecap="round"/>
</g>
<rect x="127.275" y="34.206" width="30.1635" height="94.4007" rx="4.18938" stroke="#F1F3F5" stroke-width="0.558584"/>
<rect x="163.48" y="18.5654" width="30.1635" height="10.6131" rx="5.30655" fill="white"/>
<rect x="163.48" y="18.5654" width="30.1635" height="10.6131" rx="5.30655" stroke="#EBF0F5" stroke-width="0.558584"/>
<path d="M169.618 26.179H171.385V22.0428L169.712 22.2638L169.601 21.3351L171.761 21.0405H172.6V26.179H174.151V27.0791H169.618V26.179ZM178.029 27.0791V25.9254H175.292V24.9067L177.129 21.0405H178.377L176.618 24.919H178.029V23.5525H178.999V24.919H179.981V25.9254H178.999V27.0791H178.029Z" fill="#76889A"/>
<path d="M183.531 25.4244C183.265 25.4244 183.025 25.3924 182.811 25.3284C182.597 25.2644 182.378 25.1674 182.154 25.0374L182.313 24.5783C182.453 24.6704 182.581 24.7424 182.697 24.7944C182.813 24.8464 182.934 24.8834 183.06 24.9054C183.188 24.9274 183.337 24.9384 183.507 24.9384C183.787 24.9384 184.009 24.8674 184.173 24.7254C184.337 24.5833 184.419 24.3553 184.419 24.0413C184.419 23.7353 184.354 23.4973 184.224 23.3273C184.094 23.1572 183.886 23.0722 183.6 23.0722C183.436 23.0722 183.284 23.1072 183.144 23.1772C183.006 23.2453 182.883 23.3203 182.775 23.4023L182.343 23.2223L182.496 21.0201H184.707V21.5151H182.979L182.889 22.8622C183.091 22.7042 183.352 22.6252 183.672 22.6252C184.106 22.6252 184.433 22.7462 184.653 22.9882C184.875 23.2283 184.986 23.5693 184.986 24.0113C184.986 24.3373 184.923 24.6053 184.797 24.8154C184.671 25.0234 184.498 25.1774 184.278 25.2774C184.06 25.3754 183.811 25.4244 183.531 25.4244ZM186.003 24.8934H187.206V21.5271L186.084 21.6471L186.03 21.1701L187.317 21.0201H187.809V24.8934H188.871V25.3584H186.003V24.8934Z" fill="#76889A"/>
<g clip-path="url(#clip4_6989_49352)">
<rect x="163.201" y="33.9268" width="30.7221" height="94.9593" rx="4.46867" fill="white"/>
<path d="M184.74 68.4308C185.071 73.8403 185.351 80.6075 185.134 86.0703C185.059 87.9761 183.05 88.3837 181.437 87.365C180.66 86.8741 179.736 86.5662 178.613 86.6323C178.138 86.6603 177.663 86.7506 177.199 86.8861C175.241 87.4581 172.539 86.1712 172.817 84.1497C173.062 82.3663 173.404 80.4562 173.87 78.7239C174.977 74.6116 175.978 61.9723 175.847 57.1614C175.517 54.1957 177.704 48.1458 180.392 48.4621C183.752 48.8576 184.147 58.743 184.74 68.4308Z" fill="#F1F3F5" stroke="#13293D" stroke-width="0.279292"/>
<path d="M174.661 51.0954C173.657 51.7002 172.797 52.9051 172.485 54.9868C172.089 56.898 171.536 61.8276 172.485 66.2563C173.078 68.8265 174.806 73.1809 174.782 73.3737C175.462 67.9211 175.938 60.573 175.844 57.1615C175.73 56.1335 175.918 54.7349 176.325 53.3593C176.736 51.9692 175.902 50.3474 174.661 51.0954Z" fill="#F1F3F5" stroke="#13293D" stroke-width="0.279292"/>
<path d="M178.301 90.7899C181.211 90.0142 185.741 97.9826 187.521 103.791C187.646 104.197 187.642 104.63 187.484 105.023C186.662 107.066 184.366 111.155 181.973 112.915C179.308 114.875 178.537 114.918 177.427 114.102C174.66 112.52 173.065 109.819 171.498 108.764C169.938 107.713 169.658 105.779 169.913 105.017L169.918 105.004C170 104.774 174.692 91.7519 178.301 90.7899Z" fill="#F1F3F5" stroke="#13293D" stroke-width="0.279292"/>
<path d="M179.158 98.5713C179.158 99.6442 179.158 100.717 179.158 101.79C179.158 102.007 179.233 102.206 179.233 102.42C179.233 102.686 179.271 102.94 179.271 103.207C179.271 104.058 179.308 104.907 179.308 105.762" stroke="#13293D" stroke-width="0.279292" stroke-linecap="round"/>
</g>
<rect x="163.48" y="34.206" width="30.1635" height="94.4007" rx="4.18938" stroke="#EBF0F5" stroke-width="0.558584"/>
<rect x="199.686" y="18.5654" width="30.1635" height="10.6131" rx="5.30655" fill="white"/>
<rect x="199.686" y="18.5654" width="30.1635" height="10.6131" rx="5.30655" stroke="#EBF0F5" stroke-width="0.558584"/>
<path d="M205.823 26.179H207.59V22.0428L205.917 22.2638L205.806 21.3351L207.966 21.0405H208.805V26.179H210.356V27.0791H205.823V26.179ZM213.747 27.1896C212.975 27.1896 212.415 27.0218 212.066 26.6863C211.719 26.3509 211.546 25.8872 211.546 25.2953H212.643C212.643 25.6745 212.73 25.9322 212.905 26.0686C213.082 26.2022 213.367 26.269 213.76 26.269C214.125 26.269 214.39 26.1859 214.553 26.0195C214.72 25.8504 214.803 25.6049 214.803 25.2831C214.803 25.0349 214.766 24.8399 214.692 24.698C214.619 24.5562 214.485 24.4553 214.291 24.3953C214.101 24.3353 213.829 24.3053 213.477 24.3053V23.4911C213.87 23.4911 214.158 23.4611 214.341 23.4011C214.523 23.3384 214.641 23.2443 214.692 23.1188C214.744 22.9906 214.77 22.8284 214.77 22.632C214.77 22.381 214.696 22.1874 214.549 22.051C214.402 21.9147 214.131 21.8465 213.735 21.8465C213.326 21.8465 213.045 21.9201 212.892 22.0674C212.74 22.2119 212.663 22.4738 212.663 22.8529H211.571C211.571 22.3701 211.659 21.9883 211.837 21.7074C212.014 21.4264 212.264 21.2273 212.585 21.1101C212.907 20.99 213.286 20.93 213.723 20.93C214.154 20.93 214.533 20.9941 214.86 21.1223C215.187 21.2505 215.442 21.4373 215.625 21.6828C215.811 21.9283 215.903 22.2256 215.903 22.5747C215.903 22.7656 215.88 22.9511 215.834 23.1311C215.79 23.3111 215.703 23.4693 215.572 23.6057C215.441 23.7393 215.246 23.8334 214.987 23.888C215.352 23.9862 215.605 24.1675 215.744 24.4321C215.886 24.6939 215.957 24.9953 215.957 25.3363C215.957 25.6881 215.882 26.0045 215.732 26.2854C215.584 26.5636 215.348 26.7845 215.024 26.9482C214.702 27.1091 214.276 27.1896 213.747 27.1896Z" fill="#76889A"/>
<path d="M219.736 25.4244C219.47 25.4244 219.23 25.3924 219.016 25.3284C218.802 25.2644 218.583 25.1674 218.359 25.0374L218.518 24.5783C218.658 24.6704 218.786 24.7424 218.902 24.7944C219.018 24.8464 219.139 24.8834 219.265 24.9054C219.393 24.9274 219.542 24.9384 219.712 24.9384C219.992 24.9384 220.214 24.8674 220.378 24.7254C220.542 24.5833 220.624 24.3553 220.624 24.0413C220.624 23.7353 220.559 23.4973 220.429 23.3273C220.299 23.1572 220.091 23.0722 219.805 23.0722C219.641 23.0722 219.489 23.1072 219.349 23.1772C219.211 23.2453 219.088 23.3203 218.98 23.4023L218.548 23.2223L218.701 21.0201H220.912V21.5151H219.184L219.094 22.8622C219.296 22.7042 219.557 22.6252 219.877 22.6252C220.311 22.6252 220.638 22.7462 220.858 22.9882C221.08 23.2283 221.191 23.5693 221.191 24.0113C221.191 24.3373 221.128 24.6053 221.002 24.8154C220.876 25.0234 220.703 25.1774 220.483 25.2774C220.265 25.3754 220.016 25.4244 219.736 25.4244ZM222.208 24.8934H223.411V21.5271L222.289 21.6471L222.235 21.1701L223.522 21.0201H224.014V24.8934H225.076V25.3584H222.208V24.8934Z" fill="#76889A"/>
<g clip-path="url(#clip5_6989_49352)">
<rect x="199.406" y="33.9268" width="30.7221" height="94.9593" rx="4.46867" fill="white"/>
<path d="M219.827 56.4206C220.247 63.2974 222.749 81.0253 222.284 87.5987C222.26 87.9329 221.829 88.0712 221.557 87.8752C220.006 86.7565 216.978 85.9073 214.095 86.077C212.248 86.1857 210.513 86.9968 209.608 87.4935C209.331 87.6459 208.957 87.4419 208.944 87.1256C208.805 83.892 207.782 74.2573 208.561 70.4579C210.142 62.7473 211.131 62.3519 212.119 51.8733C212.399 48.9026 209.808 37.8359 212.514 37.8359C216.467 37.8359 219.234 46.7328 219.827 56.4206Z" fill="#F1F3F5" stroke="#13293D" stroke-width="0.279292"/>
<path d="M214.687 90.0309C219.207 88.0649 222.49 99.3926 224.146 105.546C224.164 105.615 224.164 105.685 224.142 105.753C223.552 107.582 221.079 111.541 218.442 113.558C215.754 115.614 213.633 114.02 212.513 113.163C210.141 110.988 208.758 108.932 207.177 107.825C205.596 106.718 205.728 104.859 205.991 104.068C205.991 104.068 211.017 91.6271 214.687 90.0309Z" fill="#F1F3F5" stroke="#13293D" stroke-width="0.279292"/>
<path d="M217.596 101.92C217.596 102.749 217.833 103.59 217.922 104.415C217.986 104.995 218.037 105.544 218.262 106.078C218.524 106.699 218.546 107.486 218.546 108.158" stroke="#13293D" stroke-width="0.279292" stroke-linecap="round"/>
<path d="M210.292 110.713C210.292 109.992 210.055 109.262 210.055 108.574" stroke="#13293D" stroke-width="0.279292" stroke-linecap="round"/>
</g>
<rect x="199.686" y="34.206" width="30.1635" height="94.4007" rx="4.18938" stroke="#EBF0F5" stroke-width="0.558584"/>
<rect x="235.891" y="18.5654" width="30.1635" height="10.6131" rx="5.30655" fill="#1E96FC" fill-opacity="0.1"/>
<rect x="235.891" y="18.5654" width="30.1635" height="10.6131" rx="5.30655" stroke="#1E96FC" stroke-width="0.558584"/>
<path d="M242.028 26.179H243.795V22.0428L242.122 22.2638L242.011 21.3351L244.172 21.0405H245.01V26.179H246.561V27.0791H242.028V26.179ZM248.009 27.0791L247.862 26.1545L250.1 24.1375C250.312 23.9466 250.477 23.7775 250.595 23.6302C250.712 23.4829 250.794 23.3384 250.84 23.1966C250.889 23.052 250.914 22.8938 250.914 22.722C250.914 22.4411 250.843 22.2256 250.701 22.0756C250.559 21.9228 250.319 21.8465 249.981 21.8465C249.594 21.8465 249.32 21.9324 249.159 22.1042C248.998 22.276 248.917 22.5815 248.917 23.0206H247.67C247.67 22.3006 247.841 21.7728 248.185 21.4373C248.531 21.0991 249.112 20.93 249.928 20.93C250.446 20.93 250.863 21.0105 251.18 21.1714C251.496 21.3296 251.727 21.5437 251.871 21.8137C252.018 22.081 252.092 22.381 252.092 22.7138C252.092 23.1584 251.986 23.5457 251.773 23.8757C251.56 24.203 251.248 24.5426 250.836 24.8944L249.371 26.1504H251.99V27.0791H248.009Z" fill="#13293D"/>
<path d="M255.941 25.4244C255.675 25.4244 255.435 25.3924 255.221 25.3284C255.007 25.2644 254.788 25.1674 254.564 25.0374L254.723 24.5783C254.863 24.6704 254.991 24.7424 255.107 24.7944C255.223 24.8464 255.344 24.8834 255.47 24.9054C255.598 24.9274 255.747 24.9384 255.917 24.9384C256.197 24.9384 256.419 24.8674 256.583 24.7254C256.747 24.5833 256.829 24.3553 256.829 24.0413C256.829 23.7353 256.764 23.4973 256.634 23.3273C256.504 23.1572 256.296 23.0722 256.01 23.0722C255.846 23.0722 255.694 23.1072 255.554 23.1772C255.416 23.2453 255.293 23.3203 255.185 23.4023L254.753 23.2223L254.906 21.0201H257.117V21.5151H255.389L255.299 22.8622C255.501 22.7042 255.762 22.6252 256.082 22.6252C256.516 22.6252 256.843 22.7462 257.063 22.9882C257.285 23.2283 257.396 23.5693 257.396 24.0113C257.396 24.3373 257.333 24.6053 257.207 24.8154C257.081 25.0234 256.908 25.1774 256.688 25.2774C256.47 25.3754 256.221 25.4244 255.941 25.4244ZM258.413 24.8934H259.616V21.5271L258.494 21.6471L258.44 21.1701L259.727 21.0201H260.219V24.8934H261.281V25.3584H258.413V24.8934Z" fill="#13293D"/>
<g clip-path="url(#clip6_6989_49352)">
<rect x="235.611" y="33.9268" width="30.7221" height="94.9593" rx="4.46867" fill="#1E96FC" fill-opacity="0.1"/>
<path d="M254.793 67.7809C256.67 74.9154 257.834 89.3599 256.931 93.6753C256.871 93.9578 256.536 94.0291 256.336 93.8208C255.154 92.5869 253.449 90.9539 250.445 91.1102C248.072 91.2337 246.532 92.2354 245.515 93.1144C245.313 93.2897 244.996 93.2276 244.894 92.9798C244.052 90.9368 242.701 86.7645 243.725 83.3996C244.843 79.7282 245.414 71.5376 245.702 66.7925C245.989 62.0474 248.325 55.4383 251.038 55.7207C253.751 56.0031 253.218 61.7924 254.793 67.7809Z" fill="#F1F3F5" stroke="#13293D" stroke-width="0.279292"/>
<path d="M255.385 98.4254C258.389 104.436 258.876 111.474 258.745 114.242H248.665C245.661 114.242 244.91 113.319 244.91 112.858C244.91 112.858 244.91 101.589 246.096 98.4254C246.724 96.749 251.63 90.9124 255.385 98.4254Z" fill="#F1F3F5" stroke="#13293D" stroke-width="0.279292"/>
<path d="M249.465 114.2C249.465 114.719 249.484 113.161 249.465 112.642C249.455 112.385 249.346 112.166 249.346 111.883" stroke="#13293D" stroke-width="0.279292" stroke-linecap="round"/>
<path d="M253.207 108.733C253.207 109.545 253.577 110.578 254.012 111.261C254.134 111.453 254.217 111.745 254.217 111.971C254.217 112.209 254.395 112.426 254.395 112.654" stroke="#13293D" stroke-width="0.279292" stroke-linecap="round"/>
<rect x="239.801" y="116.598" width="10.0545" height="10.0545" rx="5.02726" fill="#1E96FC"/>
<path d="M243.519 124.125V119.656H246.29V120.237H244.193V121.598H246.091V122.177H244.193V124.125H243.519Z" fill="white"/>
<rect x="252.09" y="116.598" width="10.0545" height="10.0545" rx="5.02726" fill="#1E96FC"/>
<path d="M255.48 124.125L254.241 119.656H254.95L255.82 123.117H255.862L256.767 119.656H257.47L258.375 123.119H258.417L259.285 119.656H259.997L258.755 124.125H258.076L257.136 120.778H257.101L256.161 124.125H255.48Z" fill="white"/>
</g>
<rect x="235.891" y="34.206" width="30.1635" height="94.4007" rx="4.18938" stroke="#1E96FC" stroke-width="0.558584"/>
<rect x="272.096" y="18.5654" width="30.1635" height="10.6131" rx="5.30655" fill="white"/>
<rect x="272.096" y="18.5654" width="30.1635" height="10.6131" rx="5.30655" stroke="#EBF0F5" stroke-width="0.558584"/>
<path d="M278.233 26.179H280V22.0428L278.327 22.2638L278.216 21.3351L280.377 21.0405H281.215V26.179H282.766V27.0791H278.233V26.179ZM284.042 26.179H285.81V22.0428L284.136 22.2638L284.026 21.3351L286.186 21.0405H287.025V26.179H288.575V27.0791H284.042V26.179Z" fill="#76889A"/>
<path d="M292.146 25.4244C291.88 25.4244 291.64 25.3924 291.426 25.3284C291.212 25.2644 290.993 25.1674 290.769 25.0374L290.928 24.5783C291.068 24.6704 291.196 24.7424 291.312 24.7944C291.428 24.8464 291.549 24.8834 291.675 24.9054C291.803 24.9274 291.952 24.9384 292.122 24.9384C292.402 24.9384 292.624 24.8674 292.788 24.7254C292.952 24.5833 293.034 24.3553 293.034 24.0413C293.034 23.7353 292.969 23.4973 292.839 23.3273C292.709 23.1572 292.501 23.0722 292.215 23.0722C292.051 23.0722 291.899 23.1072 291.759 23.1772C291.621 23.2453 291.498 23.3203 291.39 23.4023L290.958 23.2223L291.111 21.0201H293.322V21.5151H291.594L291.504 22.8622C291.706 22.7042 291.967 22.6252 292.287 22.6252C292.721 22.6252 293.048 22.7462 293.268 22.9882C293.49 23.2283 293.601 23.5693 293.601 24.0113C293.601 24.3373 293.538 24.6053 293.412 24.8154C293.286 25.0234 293.113 25.1774 292.893 25.2774C292.675 25.3754 292.426 25.4244 292.146 25.4244ZM294.618 24.8934H295.821V21.5271L294.699 21.6471L294.645 21.1701L295.932 21.0201H296.424V24.8934H297.487V25.3584H294.618V24.8934Z" fill="#76889A"/>
<g clip-path="url(#clip7_6989_49352)">
<rect x="271.816" y="33.9268" width="30.7221" height="94.9593" rx="4.46867" fill="white"/>
<path d="M290.569 57.1497C292.608 64.7274 293.463 79.4543 293.67 86.8556C293.68 87.2216 293.209 87.4021 292.944 87.1501C291.486 85.7683 289.168 84.3964 285.989 84.5859C283.329 84.7445 281.639 85.9729 280.509 87.0869C280.301 87.2926 279.945 87.2187 279.855 86.9399C278.599 83.0543 277.887 77.9486 277.887 72.1302C277.887 67.2566 277.947 61.1925 280.06 54.1387C282.174 47.0849 280.828 42.5211 283.867 42.8834C287.665 43.3363 287.888 47.1859 290.569 57.1497Z" fill="#F1F3F5" stroke="#13293D" stroke-width="0.279292"/>
<path d="M292.313 91.3079C295.63 95.6351 296.513 111.143 296.643 113.841C296.654 114.063 296.478 114.24 296.255 114.236C293.655 114.193 279.431 113.882 279.072 112.265C278.676 110.486 277.886 108.113 278.479 102.38C279.072 96.646 279.862 92.8895 281.246 91.3079C282.629 89.7262 288.677 86.5628 292.313 91.3079Z" fill="#F1F3F5" stroke="#13293D" stroke-width="0.279292"/>
<path d="M288.138 99.0381C288.138 100.454 287.899 102.127 288.349 103.477" stroke="#13293D" stroke-width="0.279292" stroke-linecap="round"/>
<path d="M284.314 110.683V113.645" stroke="#13293D" stroke-width="0.279292" stroke-linecap="round"/>
<path d="M290.097 113.968C290.097 113.593 289.873 113.241 289.817 112.875C289.802 112.78 289.733 112.598 289.655 112.531C289.478 112.379 289.479 112.048 289.449 111.839" stroke="#13293D" stroke-width="0.279292" stroke-linecap="round"/>
</g>
<rect x="272.096" y="34.206" width="30.1635" height="94.4007" rx="4.18938" stroke="#EBF0F5" stroke-width="0.558584"/>
<defs>
<clipPath id="clip0_6989_49352">
<rect x="18.3789" y="33.9268" width="30.7221" height="94.9593" rx="4.46867" fill="white"/>
</clipPath>
<clipPath id="clip1_6989_49352">
<rect x="54.584" y="33.9268" width="30.7221" height="94.9593" rx="4.46867" fill="white"/>
</clipPath>
<clipPath id="clip2_6989_49352">
<rect x="90.7891" y="33.9268" width="30.7221" height="94.9593" rx="4.46867" fill="white"/>
</clipPath>
<clipPath id="clip3_6989_49352">
<rect x="126.996" y="33.9268" width="30.7221" height="94.9593" rx="4.46867" fill="white"/>
</clipPath>
<clipPath id="clip4_6989_49352">
<rect x="163.201" y="33.9268" width="30.7221" height="94.9593" rx="4.46867" fill="white"/>
</clipPath>
<clipPath id="clip5_6989_49352">
<rect x="199.406" y="33.9268" width="30.7221" height="94.9593" rx="4.46867" fill="white"/>
</clipPath>
<clipPath id="clip6_6989_49352">
<rect x="235.611" y="33.9268" width="30.7221" height="94.9593" rx="4.46867" fill="white"/>
</clipPath>
<clipPath id="clip7_6989_49352">
<rect x="271.816" y="33.9268" width="30.7221" height="94.9593" rx="4.46867" fill="white"/>
</clipPath>
</defs>
</svg>
