<svg width="17" height="15" viewBox="0 0 17 15" fill="none" xmlns="http://www.w3.org/2000/svg">
<path d="M10.125 14.457V9.97017C10.125 8.40099 10.3784 6.9871 10.8851 5.72849C11.3918 4.45353 11.9721 3.36655 12.6259 2.46754C13.2961 1.56853 13.8682 0.898362 14.3422 0.457031L16.3282 1.53584C15.9522 1.97717 15.4945 2.55744 14.9551 3.27665C14.4321 3.99585 13.9662 4.8213 13.5576 5.753C13.1653 6.66836 12.9691 7.66544 12.9691 8.74425H16.4262V14.457H10.125ZM0.0234375 14.457V9.97017C0.0234375 8.40099 0.276794 6.9871 0.783508 5.72849C1.29022 4.45353 1.87049 3.36655 2.52431 2.46754C3.19448 1.56853 3.76658 0.898362 4.2406 0.457031L6.22659 1.53584C5.85064 1.97717 5.39297 2.55744 4.85356 3.27665C4.3305 3.99585 3.86465 4.8213 3.45601 5.753C3.06372 6.66836 2.86757 7.66544 2.86757 8.74425H6.32466V14.457H0.0234375Z" fill="#1E96FC"/>
</svg>
