<?xml version="1.0" standalone="no"?>
<!DOCTYPE svg PUBLIC "-//W3C//DTD SVG 20010904//EN"
 "http://www.w3.org/TR/2001/REC-SVG-20010904/DTD/svg10.dtd">
<svg version="1.0" xmlns="http://www.w3.org/2000/svg"
 width="832.000000pt" height="832.000000pt" viewBox="0 0 832.000000 832.000000"
 preserveAspectRatio="xMidYMid meet">
<metadata>
Created by potrace 1.14, written by Peter Selinger 2001-2017
</metadata>
<g transform="translate(0.000000,832.000000) scale(0.100000,-0.100000)"
fill="#000000" stroke="none">
<path d="M3960 8180 c0 -3 -24 -5 -53 -6 -57 -1 -161 -10 -217 -19 -19 -3 -51
-8 -70 -10 -52 -6 -99 -14 -155 -25 -27 -5 -62 -12 -77 -15 -64 -12 -88 -17
-193 -44 -60 -16 -116 -30 -124 -32 -7 -2 -84 -28 -170 -57 -86 -29 -162 -54
-168 -54 -7 -1 -13 -6 -13 -11 0 -6 -3 -8 -6 -4 -3 3 -40 -10 -82 -30 -43 -19
-81 -36 -87 -37 -5 -1 -29 -12 -52 -24 -24 -12 -43 -19 -43 -15 0 5 -4 2 -9
-5 -4 -7 -14 -14 -22 -15 -8 -2 -20 -6 -28 -11 -7 -5 -52 -29 -100 -54 -47
-24 -98 -53 -112 -63 -14 -10 -29 -16 -33 -12 -3 3 -6 1 -6 -5 0 -7 -7 -12
-15 -12 -8 0 -15 -4 -15 -9 0 -5 -8 -11 -18 -14 -17 -6 -73 -38 -82 -47 -3 -3
-26 -19 -52 -35 -27 -17 -48 -33 -48 -37 0 -5 -5 -8 -10 -8 -9 0 -65 -35 -80
-50 -3 -3 -32 -25 -65 -49 -33 -25 -74 -56 -91 -70 -17 -14 -42 -35 -56 -46
-152 -119 -409 -380 -567 -575 -25 -30 -47 -57 -50 -60 -3 -3 -10 -12 -16 -21
-5 -9 -47 -67 -92 -130 -89 -124 -212 -323 -270 -439 -21 -41 -41 -76 -45 -78
-5 -2 -8 -8 -8 -14 0 -5 -15 -42 -34 -81 -31 -65 -66 -144 -71 -157 -6 -18
-19 -50 -32 -78 -8 -18 -16 -40 -18 -50 -2 -9 -9 -30 -16 -47 -7 -16 -13 -32
-14 -35 -1 -3 -20 -63 -43 -135 -50 -155 -107 -379 -117 -455 -1 -14 -8 -54
-15 -90 -13 -71 -14 -77 -25 -165 -35 -279 -39 -647 -11 -915 10 -89 16 -147
20 -165 2 -11 7 -40 10 -65 3 -25 8 -56 11 -70 3 -14 9 -50 15 -80 6 -30 25
-111 42 -180 17 -69 31 -129 33 -135 1 -5 5 -17 8 -25 3 -8 20 -60 37 -115 17
-55 50 -147 73 -205 23 -58 42 -107 43 -110 3 -17 103 -234 126 -275 6 -11 25
-47 42 -80 16 -33 33 -62 36 -65 3 -3 11 -16 18 -30 14 -26 15 -28 77 -130 46
-76 144 -219 162 -238 7 -7 13 -17 13 -21 0 -4 9 -19 21 -32 11 -13 29 -34 40
-47 10 -12 19 -24 19 -27 0 -3 8 -13 17 -23 10 -10 34 -38 53 -62 63 -78 123
-142 255 -275 171 -170 285 -270 430 -375 33 -24 62 -46 65 -50 3 -3 28 -20
56 -38 28 -18 62 -41 74 -52 13 -11 29 -20 37 -20 7 0 16 -7 19 -15 4 -8 10
-15 15 -15 6 0 55 -27 110 -60 87 -53 318 -171 435 -222 81 -36 149 -65 159
-68 17 -5 28 -8 97 -34 36 -13 69 -22 72 -19 3 4 6 1 6 -5 0 -7 8 -12 19 -12
10 0 38 -7 62 -15 131 -47 451 -120 614 -140 11 -2 43 -6 70 -10 243 -35 783
-40 965 -10 14 3 61 9 105 15 101 14 136 20 155 25 8 3 33 7 55 11 52 7 67 10
145 29 36 9 77 18 91 20 14 2 39 9 55 15 28 11 44 16 90 25 12 3 38 12 58 20
20 8 37 14 38 13 4 -2 107 32 143 47 17 7 62 25 100 40 39 14 79 30 90 35 177
79 355 167 430 213 11 7 38 23 60 35 22 12 54 31 70 42 17 11 40 25 53 31 12
7 22 16 22 21 0 4 5 8 10 8 11 0 152 94 181 120 9 8 29 24 44 35 198 139 554
485 715 695 19 25 37 47 40 50 3 3 17 21 30 40 13 19 27 37 30 40 3 3 13 16
22 30 10 14 31 44 48 68 16 23 30 47 30 52 0 6 4 10 8 10 5 0 19 19 32 43 13
23 26 44 30 47 16 14 211 367 215 390 0 3 16 37 34 75 44 93 155 367 162 405
3 11 8 26 15 45 4 11 8 26 10 34 1 8 9 35 18 60 14 45 45 159 52 194 2 10 6
27 9 37 3 10 8 31 10 46 5 28 29 152 33 167 1 4 2 8 3 10 0 1 2 18 4 37 4 34
7 55 19 130 28 178 40 611 23 810 -13 140 -17 185 -23 230 -3 25 -7 56 -9 70
-2 14 -11 66 -20 115 -9 50 -18 104 -21 120 -3 17 -7 37 -10 45 -3 8 -8 26
-11 40 -9 43 -11 55 -13 55 -2 0 -7 21 -15 60 -6 31 -52 189 -62 215 -7 18
-11 30 -16 50 -2 8 -9 29 -16 45 -23 55 -53 140 -58 163 -3 12 -9 22 -12 22
-4 0 -8 6 -8 13 0 6 -18 51 -41 100 -22 48 -38 87 -36 87 3 0 -3 12 -13 28
-11 15 -28 47 -38 72 -11 25 -22 47 -25 50 -6 6 -19 29 -56 101 -15 30 -47 84
-71 122 -24 37 -43 70 -43 73 0 5 -42 66 -51 74 -3 3 -12 16 -19 29 -7 14 -17
30 -22 35 -5 6 -30 40 -56 76 -26 36 -53 72 -60 80 -6 8 -35 44 -63 80 -112
143 -324 365 -473 495 -38 33 -74 65 -80 70 -9 8 -103 83 -161 128 -66 51
-310 217 -319 217 -2 0 -43 24 -92 53 -77 46 -338 181 -354 183 -3 0 -36 15
-74 32 -38 18 -73 32 -78 32 -4 0 -16 4 -26 9 -36 20 -209 80 -377 131 -39 11
-115 31 -139 36 -10 2 -33 8 -50 13 -17 6 -47 13 -66 16 -69 12 -75 13 -110
21 -19 4 -46 8 -60 10 -14 1 -27 3 -30 5 -7 3 -62 11 -175 25 -22 3 -51 7 -65
9 -97 15 -650 28 -650 15z"/>
</g>
</svg>
