<svg width="52" height="51" viewBox="0 0 52 51" fill="none" xmlns="http://www.w3.org/2000/svg">
<circle cx="26.1895" cy="25.6328" r="25.2969" fill="#13293D"/>
<path d="M19.4537 21.707C18.3262 22.1945 17.27 22.8989 16.3485 23.8203C12.4359 27.7329 12.4359 34.0766 16.3485 37.9892C19.3173 40.958 23.6856 41.6742 27.3296 40.1378C26.677 39.757 26.0622 39.2869 25.5028 38.7275C22.5116 35.7363 22.0732 31.1589 24.1877 27.7027C22.8555 26.0962 21.2026 24.7646 19.3269 23.8066L18.2891 23.2764L18.9707 22.3311C19.1247 22.1175 19.2858 21.9094 19.4537 21.707Z" fill="#FFC268"/>
<path d="M28.1778 18.5174C26.7872 15.381 23.9368 13.0358 20.4887 12.3438C20.1524 13.3842 19.9707 14.4941 19.9707 15.6465C19.9707 17.6338 20.5111 19.4949 21.453 21.0909C20.8274 21.6318 20.2659 22.2448 19.7812 22.9169C23.6087 24.8719 26.5659 28.2877 27.9177 32.4291C28.0672 32.4127 28.2192 32.4043 28.373 32.4043C28.5278 32.4043 28.6805 32.4128 28.8308 32.4294C30.1824 28.2882 33.1393 24.8725 36.9664 22.9174C36.4816 22.245 35.9198 21.6318 35.2939 21.0906C36.2357 19.4947 36.776 17.6337 36.776 15.6465C36.776 14.4941 36.5943 13.3842 36.258 12.3438C32.8099 13.0358 29.9596 15.381 28.5689 18.5174C28.504 18.5162 28.4389 18.5156 28.3736 18.5156C28.3082 18.5156 28.243 18.5162 28.1778 18.5174Z" fill="#FF8B36"/>
<path fill-rule="evenodd" clip-rule="evenodd" d="M28.1225 32.4012C27.4506 28.3108 24.6244 24.9458 20.8477 23.5098C24.1505 25.5245 26.6845 28.6753 27.9065 32.4192C27.978 32.4114 28.05 32.4054 28.1225 32.4012Z" fill="#E23401"/>
<path fill-rule="evenodd" clip-rule="evenodd" d="M16.3485 23.8262C17.27 22.9047 18.3262 22.2003 19.4537 21.7129C19.2858 21.9152 19.1247 22.1234 18.9707 22.337L18.2891 23.2823L19.3269 23.8124C21.2026 24.7705 22.8555 26.102 24.1877 27.7086C23.8096 28.3266 23.5131 28.9806 23.2982 29.6548C20.9513 31.0053 19.3711 33.5383 19.3711 36.4404C19.3711 37.924 19.7841 39.3111 20.5013 40.4931C18.9816 40.0296 17.5504 39.1969 16.3485 37.9951C12.4359 34.0824 12.4359 27.7388 16.3485 23.8262Z" fill="#FF8B36"/>
<path fill-rule="evenodd" clip-rule="evenodd" d="M18.2108 22.3574C17.548 22.7628 16.9222 23.2524 16.3485 23.826C12.5115 27.663 12.4374 33.8379 16.126 37.7653C15.3688 35.9426 14.9508 33.9435 14.9508 31.8468C14.9508 28.2689 16.1679 24.9753 18.2108 22.3574Z" fill="#FFC268"/>
<path fill-rule="evenodd" clip-rule="evenodd" d="M20.4887 12.3438C23.9368 13.0358 26.7872 15.381 28.1778 18.5174C28.243 18.5162 28.3082 18.5156 28.3736 18.5156C28.4389 18.5156 28.504 18.5162 28.5689 18.5174C29.9596 15.381 32.8099 13.0358 36.258 12.3438C36.5943 13.3842 36.776 14.4941 36.776 15.6465C36.776 17.6337 36.2357 19.4947 35.2939 21.0906C35.9198 21.6318 36.4816 22.245 36.9664 22.9174C34.7788 24.035 32.8755 25.6297 31.3939 27.5644C29.9234 24.6803 26.9253 22.7051 23.4658 22.7051C22.3875 22.7051 21.354 22.897 20.3976 23.2485C20.1948 23.1338 19.9893 23.0232 19.7812 22.9169C20.2659 22.2448 20.8274 21.6318 21.453 21.0909C20.5111 19.4949 19.9707 17.6338 19.9707 15.6465C19.9707 14.4941 20.1524 13.3842 20.4887 12.3438Z" fill="#FFB052"/>
<path fill-rule="evenodd" clip-rule="evenodd" d="M28.1778 18.5174C26.7872 15.381 23.9368 13.0358 20.4887 12.3438C20.1524 13.3842 19.9707 14.4941 19.9707 15.6465C19.9707 17.3271 20.3572 18.9174 21.0461 20.3335C22.1526 20.0845 23.3036 19.9531 24.4854 19.9531C28.5587 19.9531 32.2674 21.5142 35.0458 24.0708C35.6569 23.6444 36.2984 23.2587 36.9664 22.9174C36.4816 22.245 35.9198 21.6318 35.2939 21.0906C36.2357 19.4947 36.776 17.6337 36.776 15.6465C36.776 14.4941 36.5943 13.3842 36.258 12.3438C32.8099 13.0358 29.9596 15.381 28.5689 18.5174C28.504 18.5162 28.4389 18.5156 28.3736 18.5156C28.3082 18.5156 28.243 18.5162 28.1778 18.5174Z" fill="#FFC268"/>
<path d="M28.1934 18.53L28.1877 18.5172C28.2496 18.5162 28.3115 18.5156 28.3736 18.5156C28.4359 18.5156 28.498 18.5162 28.56 18.5172L28.5543 18.53C28.4943 18.5289 28.4343 18.5283 28.3741 18.5283C28.3137 18.5283 28.2535 18.5289 28.1934 18.53Z" fill="#FFF7BC"/>
<path d="M36.258 12.3438C33.107 12.9762 30.4552 14.9891 28.9603 17.7249C30.3475 15.2867 32.7732 13.6964 35.6495 13.1191C35.9599 14.0792 36.1276 15.1034 36.1276 16.1668C36.1276 17.8691 35.6979 19.471 34.9411 20.87C35.0642 20.9342 35.1863 21.0002 35.3072 21.068C36.2408 19.4772 36.776 17.6243 36.776 15.6465C36.776 14.4941 36.5943 13.3842 36.258 12.3438Z" fill="#FFF7BC"/>
<path d="M20.1664 22.4149C20.5562 21.9371 20.9868 21.494 21.453 21.0909C20.5111 19.4949 19.9707 17.6338 19.9707 15.6465C19.9707 14.4941 20.1524 13.3842 20.4887 12.3438C23.624 12.973 26.2651 14.9691 27.764 17.684C26.373 15.2689 23.9584 13.6932 21.0982 13.1191C20.7878 14.0792 20.6201 15.1034 20.6201 16.1668C20.6201 17.9888 21.1124 19.6958 21.9711 21.1622C21.3348 21.531 20.7314 21.9505 20.1664 22.4149Z" fill="#FFF7BC"/>
<path fill-rule="evenodd" clip-rule="evenodd" d="M23.0976 30.5644C20.9446 28.8675 19.4257 26.402 18.9548 23.5816L19.3684 23.7929C21.2441 24.7509 22.897 26.0825 24.2292 27.6891C23.6794 28.5876 23.3023 29.5619 23.0976 30.5644ZM18.8324 22.5668L19.0121 22.3175C19.1661 22.1039 19.3273 21.8957 19.4952 21.6934C19.2618 21.7943 19.0314 21.9045 18.8047 22.024C18.8096 22.206 18.8189 22.387 18.8324 22.5668Z" fill="#FF5B17"/>
</svg>
